<svg width="77" height="76" viewBox="0 0 77 76" fill="none" xmlns="http://www.w3.org/2000/svg">
<path d="M16.9052 48.4545C14.8398 48.2088 13.0213 47.783 11.4499 47.1771C9.87472 46.603 8.56429 45.8348 7.51865 44.8725C6.50856 43.8823 5.77348 42.7475 5.31339 41.4682C4.85709 40.1571 4.71134 38.6735 4.87614 37.0173L10.4016 36.0795C10.1884 37.601 10.3549 38.9099 10.9013 40.0061C11.4514 41.0705 12.3177 41.9148 13.5002 42.5388C14.7146 43.1667 16.132 43.577 17.7526 43.7698C19.3096 43.9551 20.6351 43.9194 21.7291 43.6629C22.8548 43.4101 23.7256 42.9981 24.3414 42.4268C24.961 41.8238 25.3199 41.1092 25.4182 40.283C25.5278 39.3615 25.2811 38.591 24.6781 37.9714C24.0789 37.32 23.2281 36.7515 22.1257 36.2659C21.0589 35.7523 19.8295 35.2515 18.4374 34.7637C16.9219 34.2289 15.442 33.6661 13.9977 33.0753C12.5852 32.4884 11.3167 31.7735 10.1924 30.9308C9.06811 30.0881 8.2048 29.083 7.60249 27.9157C7.03573 26.7204 6.85253 25.2806 7.0529 23.5965C7.27972 21.69 7.95105 20.1102 9.06689 18.8573C10.1865 17.5725 11.6973 16.6566 13.5992 16.1095C15.5368 15.5343 17.7766 15.398 20.3186 15.7004C22.8289 15.9991 24.9761 16.6412 26.7601 17.6269C28.548 18.5808 29.8811 19.8351 30.7596 21.3897C31.6381 22.9444 31.9938 24.6947 31.8268 26.6406L26.164 27.5137C26.2887 26.4651 26.2217 25.5387 25.9629 24.7345C25.7396 23.9023 25.3405 23.1942 24.7655 22.6101C24.1942 21.9943 23.4788 21.5064 22.6194 21.1464C21.7917 20.7901 20.8217 20.5458 19.7096 20.4135C18.4068 20.2585 17.242 20.2971 16.2154 20.5295C15.2205 20.7656 14.4311 21.1712 13.8471 21.7462C13.2668 22.2895 12.9276 22.9742 12.8293 23.8004C12.7083 24.8172 12.9932 25.6728 13.684 26.3673C14.3748 27.0618 15.3171 27.6734 16.511 28.2021C17.7405 28.7029 19.0812 29.2169 20.533 29.7441C21.8654 30.1926 23.1902 30.7047 24.5074 31.2804C25.8564 31.8598 27.079 32.5531 28.1753 33.3603C29.2717 34.1674 30.1013 35.1846 30.6643 36.4117C31.2628 37.6108 31.46 39.0683 31.2559 40.7842C31.0366 42.6272 30.3513 44.1892 29.1999 45.4701C28.0485 46.751 26.4424 47.6556 24.3815 48.1839C22.3207 48.7121 19.8286 48.8023 16.9052 48.4545Z" fill="#FDB4F3"/>
<path d="M17.314 68.256L48.994 68.256V62.16L17.314 62.16V68.256ZM17.314 64.32H22.306L22.306 44.592H17.314L17.314 64.32ZM31.09 64.32H35.698L35.698 46.944H31.09L31.09 64.32ZM44.002 64.32H48.994L48.994 44.688L44.002 44.688L44.002 64.32Z" fill="#FDB4F3"/>
<path d="M47.839 12.8721L65.5481 39.1402L55.3991 45.9823C54.0194 46.9125 52.6785 47.6428 51.3766 48.1732C50.066 48.748 48.8298 49.1182 47.668 49.284C46.4797 49.4677 45.3657 49.4468 44.3261 49.2214C43.3045 49.0226 42.3571 48.6192 41.4842 48.0113C40.6292 47.43 39.8707 46.6485 39.2089 45.6667C38.5828 44.7381 38.1563 43.7906 37.9294 42.8244C37.7204 41.8847 37.72 40.9394 37.9281 39.9887C38.1096 39.0559 38.513 38.1085 39.1382 37.1468C39.7547 36.2294 40.5797 35.3066 41.6134 34.3782L41.2645 33.8608C39.9367 34.5244 38.736 34.8901 37.6624 34.9578C36.5623 35.0433 35.5051 34.8491 34.4909 34.3751C33.4767 33.9011 32.3767 33.1568 31.191 32.1423L25.8694 27.6834L31.4016 23.9537L36.0699 28.2163C37.0242 29.1167 37.9681 29.7153 38.9015 30.0122C39.8084 30.3271 40.7228 30.3667 41.6446 30.1312C42.5664 29.8956 43.558 29.4201 44.6193 28.7046L49.1566 25.6458L42.8242 16.2529L47.839 12.8721ZM51.7593 29.5064L46.9832 32.7262C44.9932 34.0678 43.7313 35.4589 43.1973 36.8994C42.6369 38.3579 42.8754 39.8566 43.9129 41.3955C44.9504 42.9345 46.2237 43.7355 47.7328 43.7987C49.2154 43.8798 50.9783 43.2317 53.0213 41.8543L57.8769 38.5808L51.7593 29.5064Z" fill="#FDB4F3"/>
<path d="M30.058 63V31.32H36.202V63H30.058Z" fill="#FDB4F3"/>
</svg>
